<?xml version="1.0" standalone="no"?>
<!DOCTYPE svg PUBLIC "-//W3C//DTD SVG 1.1//EN" "http://www.w3.org/Graphics/SVG/1.1/DTD/svg11.dtd">
<svg width="359.6531mm" height="211.72116mm" viewBox="0 0 359.6531 211.72116" xmlns="http://www.w3.org/2000/svg" version="1.1">
<polyline points="300.044,0 305.892,0.288 311.683,1.147 317.362,2.571 322.874,4.545 328.166,7.051 333.187,10.063 337.887,13.553 342.223,17.488 346.152,21.829 349.636,26.534 352.641,31.559 355.139,36.854 357.106,42.369 358.522,48.05 359.374,53.842 359.653,59.69 359.358,65.538 358.49,71.328 357.058,77.005 355.077,82.514 352.564,87.803 349.545,92.819 346.048,97.515 342.181,101.765 342.181,105.361 257.908,105.361 257.908,101.765 254.04,97.515 250.544,92.819 247.524,87.803 245.012,82.514 243.03,77.005 241.599,71.328 240.731,65.538 240.435,59.69 240.715,53.842 241.567,48.05 242.983,42.369 244.949,36.854 247.447,31.559 250.453,26.534 253.937,21.829 257.866,17.488 262.201,13.553 266.902,10.063 271.922,7.051 277.214,4.545 282.726,2.571 288.405,1.147 294.196,0.288 300.044,0" fill="none" stroke="blue" stroke-width="0.01mm" />
<polyline points="304.898,25.213 304.533,25.114 304.155,24.969 303.759,24.771 303.342,24.506 302.9,24.159 302.429,23.707 301.931,23.122 301.41,22.368 300.878,21.406 300.36,20.196 299.893,18.715 299.485,16.758 299.074,16.762 298.849,17.965 298.436,19.491 297.945,20.779 297.417,21.835 296.881,22.683 296.355,23.355 295.849,23.883 295.367,24.295 294.908,24.613 294.471,24.856 294.051,25.037 293.646,25.165 293.251,25.248 292.862,25.289 292.475,25.291 292.087,25.254 291.693,25.177 291.289,25.054 290.871,24.88 290.436,24.645 289.98,24.336 289.5,23.935 288.997,23.422 288.473,22.768 287.937,21.941 287.407,20.911 286.91,19.65 286.487,18.152 286.184,16.446 286.043,14.602 286.087,12.727 286.309,10.936 286.674,9.322 287.137,7.934 287.654,6.784 288.19,5.853 288.722,5.112 289.236,4.528 289.729,4.071 290.197,3.716 290.643,3.443 291.07,3.238 291.481,3.089 291.88,2.988 292.27,2.93 292.657,2.912 293.044,2.932 293.435,2.993 293.835,3.096 294.246,3.248 294.674,3.456 295.121,3.733 295.591,4.093 296.085,4.556 296.601,5.148 297.133,5.899 297.668,6.841 298.183,8.004 298.642,9.404 299.048,11.241 299.456,11.235 299.771,9.554 300.213,7.99 300.721,6.701 301.252,5.669 301.778,4.857 302.283,4.226 302.762,3.737 303.213,3.362 303.637,3.074 304.039,2.857 304.422,2.698 304.791,2.586 305.149,2.515 305.501,2.482 305.852,2.484 306.205,2.522 306.564,2.597 306.934,2.714 307.319,2.88 307.723,3.104 308.151,3.401 308.605,3.788 309.087,4.292 309.595,4.942 310.123,5.778 310.653,6.838 311.156,8.16 311.586,9.754 311.89,11.591 312.019,13.584 311.949,15.598 311.693,17.493 311.294,19.166 310.808,20.569 310.282,21.704 309.751,22.603 309.236,23.304 308.746,23.848 308.283,24.267 307.848,24.589 307.438,24.833 307.047,25.016 306.673,25.146 306.311,25.233 305.957,25.282 305.606,25.294 305.255,25.272 304.898,25.213" fill="none" stroke="blue" stroke-width="0.01mm" />
<polyline points="299.722,42.543 299.132,42.557 298.543,42.513 297.962,42.411 297.393,42.251 296.844,42.035 296.319,41.766 295.823,41.446 295.361,41.078 294.939,40.666 294.56,40.213 294.227,39.726 293.945,39.207 293.715,38.663 293.542,38.099 293.425,37.521 293.366,36.933 293.366,36.343 293.425,35.756 293.542,35.177 293.715,34.613 293.945,34.069 294.227,33.551 294.56,33.063 294.939,32.611 295.361,32.199 295.823,31.831 296.319,31.511 296.844,31.242 297.393,31.026 297.962,30.866 298.543,30.764 299.132,30.719 299.722,30.734 300.307,30.808 300.883,30.939 301.442,31.127 301.98,31.37 302.492,31.665 302.971,32.009 303.413,32.4 303.815,32.833 304.171,33.303 304.479,33.807 304.735,34.339 304.937,34.893 305.083,35.465 305.171,36.049 305.2,36.638 305.171,37.228 305.083,37.811 304.937,38.383 304.735,38.938 304.479,39.47 304.171,39.974 303.815,40.444 303.413,40.877 302.971,41.267 302.492,41.612 301.98,41.907 301.442,42.15 300.883,42.338 300.307,42.469 299.722,42.543" fill="none" stroke="blue" stroke-width="0.01mm" />
<polyline points="327.896,72.081 327.759,74.627 327.336,77.395 326.644,80.11 325.69,82.743 324.484,85.271 323.036,87.669 321.361,89.914 319.475,91.985 317.395,93.861 315.142,95.525 312.737,96.961 310.204,98.155 307.565,99.096 304.848,99.775 302.077,100.184 299.279,100.321 296.482,100.184 293.711,99.775 290.993,99.096 288.355,98.155 285.821,96.961 283.416,95.525 281.163,93.861 279.083,91.985 277.197,89.914 275.522,87.669 274.074,85.271 272.868,82.743 271.914,80.11 271.223,77.395 270.799,74.627 270.662,72.081 327.896,72.081" fill="none" stroke="blue" stroke-width="0.01mm" />
<polyline points="179.827,0 185.674,0.288 191.466,1.147 197.145,2.571 202.657,4.545 207.948,7.051 212.969,10.063 217.67,13.553 222.005,17.488 225.934,21.829 229.418,26.534 232.423,31.559 234.921,36.854 236.888,42.369 238.304,48.05 239.156,53.842 239.435,59.69 239.14,65.538 238.272,71.328 236.841,77.005 234.859,82.514 232.346,87.803 229.327,92.819 225.83,97.515 221.963,101.765 221.963,105.361 137.69,105.361 137.69,101.765 133.823,97.515 130.326,92.819 127.307,87.803 124.794,82.514 122.813,77.005 121.381,71.328 120.513,65.538 120.218,59.69 120.497,53.842 121.349,48.05 122.765,42.369 124.732,36.854 127.23,31.559 130.235,26.534 133.719,21.829 137.648,17.488 141.983,13.553 146.684,10.063 151.705,7.051 156.996,4.545 162.508,2.571 168.187,1.147 173.979,0.288 179.827,0" fill="none" stroke="blue" stroke-width="0.01mm" />
<polyline points="184.681,25.213 184.316,25.114 183.937,24.969 183.542,24.771 183.124,24.506 182.682,24.159 182.212,23.707 181.714,23.122 181.192,22.368 180.661,21.406 180.142,20.196 179.675,18.715 179.267,16.758 178.856,16.762 178.631,17.965 178.218,19.491 177.728,20.779 177.199,21.835 176.663,22.683 176.138,23.355 175.632,23.883 175.149,24.295 174.691,24.613 174.253,24.856 173.833,25.037 173.428,25.165 173.033,25.248 172.644,25.289 172.258,25.291 171.87,25.254 171.476,25.177 171.072,25.054 170.654,24.88 170.218,24.645 169.762,24.336 169.282,23.935 168.779,23.422 168.255,22.768 167.72,21.941 167.189,20.911 166.693,19.65 166.269,18.152 165.966,16.446 165.826,14.602 165.869,12.727 166.091,10.936 166.456,9.322 166.92,7.934 167.437,6.784 167.972,5.853 168.504,5.112 169.019,4.528 169.511,4.071 169.979,3.716 170.426,3.443 170.852,3.238 171.263,3.089 171.662,2.988 172.053,2.93 172.44,2.912 172.827,2.932 173.218,2.993 173.617,3.096 174.029,3.248 174.456,3.456 174.904,3.733 175.373,4.093 175.867,4.556 176.383,5.148 176.915,5.899 177.45,6.841 177.965,8.004 178.425,9.404 178.83,11.241 179.238,11.235 179.553,9.554 179.995,7.99 180.503,6.701 181.034,5.669 181.56,4.857 182.066,4.226 182.544,3.737 182.995,3.362 183.42,3.074 183.821,2.857 184.204,2.698 184.573,2.586 184.931,2.515 185.284,2.482 185.634,2.484 185.987,2.522 186.346,2.597 186.716,2.714 187.101,2.88 187.506,3.104 187.933,3.401 188.387,3.788 188.869,4.292 189.377,4.942 189.905,5.778 190.435,6.838 190.938,8.16 191.368,9.754 191.673,11.591 191.802,13.584 191.731,15.598 191.475,17.493 191.076,19.166 190.59,20.569 190.064,21.704 189.534,22.603 189.018,23.304 188.528,23.848 188.066,24.267 187.631,24.589 187.22,24.833 186.83,25.016 186.455,25.146 186.093,25.233 185.739,25.282 185.388,25.294 185.037,25.272 184.681,25.213" fill="none" stroke="blue" stroke-width="0.01mm" />
<polyline points="179.504,42.543 178.914,42.557 178.325,42.513 177.744,42.411 177.176,42.251 176.626,42.035 176.101,41.766 175.605,41.446 175.144,41.078 174.721,40.666 174.342,40.213 174.009,39.726 173.727,39.207 173.498,38.663 173.324,38.099 173.207,37.521 173.148,36.933 173.148,36.343 173.207,35.756 173.324,35.177 173.498,34.613 173.727,34.069 174.009,33.551 174.342,33.063 174.721,32.611 175.144,32.199 175.605,31.831 176.101,31.511 176.626,31.242 177.176,31.026 177.744,30.866 178.325,30.764 178.914,30.719 179.504,30.734 180.09,30.808 180.665,30.939 181.225,31.127 181.763,31.37 182.274,31.665 182.753,32.009 183.196,32.4 183.597,32.833 183.953,33.303 184.261,33.807 184.517,34.339 184.719,34.893 184.865,35.465 184.953,36.049 184.982,36.638 184.953,37.228 184.865,37.811 184.719,38.383 184.517,38.938 184.261,39.47 183.953,39.974 183.597,40.444 183.196,40.877 182.753,41.267 182.274,41.612 181.763,41.907 181.225,42.15 180.665,42.338 180.09,42.469 179.504,42.543" fill="none" stroke="blue" stroke-width="0.01mm" />
<polyline points="207.678,72.081 207.541,74.627 207.118,77.395 206.426,80.11 205.473,82.743 204.266,85.271 202.819,87.669 201.144,89.914 199.257,91.985 197.178,93.861 194.924,95.525 192.52,96.961 189.986,98.155 187.348,99.096 184.63,99.775 181.859,100.184 179.061,100.321 176.264,100.184 173.493,99.775 170.775,99.096 168.137,98.155 165.603,96.961 163.198,95.525 160.945,93.861 158.866,91.985 156.979,89.914 155.304,87.669 153.857,85.271 152.65,82.743 151.697,80.11 151.005,77.395 150.582,74.627 150.445,72.081 207.678,72.081" fill="none" stroke="blue" stroke-width="0.01mm" />
<polyline points="59.609,0 65.457,0.288 71.248,1.147 76.927,2.571 82.439,4.545 87.731,7.051 92.751,10.063 97.452,13.553 101.788,17.488 105.716,21.829 109.2,26.534 112.206,31.559 114.704,36.854 116.67,42.369 118.086,48.05 118.938,53.842 119.218,59.69 118.922,65.538 118.054,71.328 116.623,77.005 114.641,82.514 112.129,87.803 109.109,92.819 105.613,97.515 101.745,101.765 101.745,105.361 17.472,105.361 17.472,101.765 13.605,97.515 10.108,92.819 7.089,87.803 4.577,82.514 2.595,77.005 1.163,71.328 0.296,65.538 0,59.69 0.28,53.842 1.131,48.05 2.547,42.369 4.514,36.854 7.012,31.559 10.018,26.534 13.501,21.829 17.43,17.488 21.766,13.553 26.466,10.063 31.487,7.051 36.779,4.545 42.291,2.571 47.97,1.147 53.761,0.288 59.609,0" fill="none" stroke="blue" stroke-width="0.01mm" />
<polyline points="64.463,25.213 64.098,25.114 63.72,24.969 63.324,24.771 62.907,24.506 62.464,24.159 61.994,23.707 61.496,23.122 60.975,22.368 60.443,21.406 59.924,20.196 59.457,18.715 59.049,16.758 58.639,16.762 58.413,17.965 58,19.491 57.51,20.779 56.982,21.835 56.446,22.683 55.92,23.355 55.414,23.883 54.932,24.295 54.473,24.613 54.035,24.856 53.616,25.037 53.21,25.165 52.815,25.248 52.426,25.289 52.04,25.291 51.652,25.254 51.258,25.177 50.854,25.054 50.436,24.88 50.001,24.645 49.544,24.336 49.065,23.935 48.561,23.422 48.038,22.768 47.502,21.941 46.972,20.911 46.475,19.65 46.052,18.152 45.749,16.446 45.608,14.602 45.652,12.727 45.873,10.936 46.239,9.322 46.702,7.934 47.219,6.784 47.754,5.853 48.286,5.112 48.801,4.528 49.293,4.071 49.762,3.716 50.208,3.443 50.635,3.238 51.045,3.089 51.444,2.988 51.835,2.93 52.222,2.912 52.609,2.932 53,2.993 53.399,3.096 53.811,3.248 54.238,3.456 54.686,3.733 55.156,4.093 55.649,4.556 56.165,5.148 56.697,5.899 57.233,6.841 57.748,8.004 58.207,9.404 58.612,11.241 59.021,11.235 59.335,9.554 59.777,7.99 60.285,6.701 60.816,5.669 61.342,4.857 61.848,4.226 62.327,3.737 62.777,3.362 63.202,3.074 63.604,2.857 63.987,2.698 64.355,2.586 64.714,2.515 65.066,2.482 65.416,2.484 65.769,2.522 66.129,2.597 66.499,2.714 66.884,2.88 67.288,3.104 67.715,3.401 68.169,3.788 68.651,4.292 69.16,4.942 69.687,5.778 70.218,6.838 70.72,8.16 71.151,9.754 71.455,11.591 71.584,13.584 71.514,15.598 71.257,17.493 70.859,19.166 70.372,20.569 69.847,21.704 69.316,22.603 68.801,23.304 68.31,23.848 67.848,24.267 67.413,24.589 67.002,24.833 66.612,25.016 66.238,25.146 65.876,25.233 65.521,25.282 65.171,25.294 64.819,25.272 64.463,25.213" fill="none" stroke="blue" stroke-width="0.01mm" />
<polyline points="59.286,42.543 58.696,42.557 58.108,42.513 57.526,42.411 56.958,42.251 56.409,42.035 55.883,41.766 55.388,41.446 54.926,41.078 54.504,40.666 54.124,40.213 53.792,39.726 53.509,39.207 53.28,38.663 53.106,38.099 52.989,37.521 52.93,36.933 52.93,36.343 52.989,35.756 53.106,35.177 53.28,34.613 53.509,34.069 53.792,33.551 54.124,33.063 54.504,32.611 54.926,32.199 55.388,31.831 55.883,31.511 56.409,31.242 56.958,31.026 57.526,30.866 58.108,30.764 58.696,30.719 59.286,30.734 59.872,30.808 60.447,30.939 61.007,31.127 61.545,31.37 62.056,31.665 62.535,32.009 62.978,32.4 63.379,32.833 63.736,33.303 64.044,33.807 64.3,34.339 64.502,34.893 64.647,35.465 64.735,36.049 64.765,36.638 64.735,37.228 64.647,37.811 64.502,38.383 64.3,38.938 64.044,39.47 63.736,39.974 63.379,40.444 62.978,40.877 62.535,41.267 62.056,41.612 61.545,41.907 61.007,42.15 60.447,42.338 59.872,42.469 59.286,42.543" fill="none" stroke="blue" stroke-width="0.01mm" />
<polyline points="87.461,72.081 87.324,74.627 86.9,77.395 86.209,80.11 85.255,82.743 84.049,85.271 82.601,87.669 80.926,89.914 79.04,91.985 76.96,93.861 74.707,95.525 72.302,96.961 69.768,98.155 67.13,99.096 64.412,99.775 61.641,100.184 58.844,100.321 56.046,100.184 53.275,99.775 50.558,99.096 47.919,98.155 45.386,96.961 42.981,95.525 40.728,93.861 38.648,91.985 36.762,89.914 35.087,87.669 33.639,85.271 32.432,82.743 31.479,80.11 30.787,77.395 30.364,74.627 30.227,72.081 87.461,72.081" fill="none" stroke="blue" stroke-width="0.01mm" />
<polyline points="300.044,106.361 305.892,106.648 311.683,107.508 317.362,108.932 322.874,110.906 328.166,113.411 333.187,116.423 337.887,119.914 342.223,123.848 346.152,128.189 349.636,132.895 352.641,137.92 355.139,143.215 357.106,148.729 358.522,154.41 359.374,160.203 359.653,166.051 359.358,171.898 358.49,177.689 357.058,183.366 355.077,188.875 352.564,194.163 349.545,199.18 346.048,203.876 342.181,208.125 342.181,211.721 257.908,211.721 257.908,208.125 254.04,203.876 250.544,199.18 247.524,194.163 245.012,188.875 243.03,183.366 241.599,177.689 240.731,171.898 240.435,166.051 240.715,160.203 241.567,154.41 242.983,148.729 244.949,143.215 247.447,137.92 250.453,132.895 253.937,128.189 257.866,123.848 262.201,119.914 266.902,116.423 271.922,113.411 277.214,110.906 282.726,108.932 288.405,107.508 294.196,106.648 300.044,106.361" fill="none" stroke="blue" stroke-width="0.01mm" />
<polyline points="304.898,131.573 304.533,131.474 304.155,131.33 303.759,131.131 303.342,130.867 302.9,130.519 302.429,130.067 301.931,129.482 301.41,128.729 300.878,127.767 300.36,126.557 299.893,125.076 299.485,123.119 299.074,123.123 298.849,124.326 298.436,125.852 297.945,127.14 297.417,128.196 296.881,129.044 296.355,129.716 295.849,130.244 295.367,130.656 294.908,130.974 294.471,131.217 294.051,131.397 293.646,131.526 293.251,131.608 292.862,131.649 292.475,131.652 292.087,131.615 291.693,131.537 291.289,131.414 290.871,131.24 290.436,131.005 289.98,130.696 289.5,130.296 288.997,129.782 288.473,129.128 287.937,128.302 287.407,127.271 286.91,126.01 286.487,124.513 286.184,122.806 286.043,120.962 286.087,119.087 286.309,117.297 286.674,115.682 287.137,114.295 287.654,113.145 288.19,112.214 288.722,111.472 289.236,110.888 289.729,110.431 290.197,110.076 290.643,109.804 291.07,109.599 291.481,109.45 291.88,109.349 292.27,109.291 292.657,109.273 293.044,109.293 293.435,109.353 293.835,109.457 294.246,109.608 294.674,109.817 295.121,110.093 295.591,110.453 296.085,110.916 296.601,111.509 297.133,112.259 297.668,113.201 298.183,114.364 298.642,115.765 299.048,117.602 299.456,117.595 299.771,115.915 300.213,114.351 300.721,113.062 301.252,112.029 301.778,111.218 302.283,110.586 302.762,110.098 303.213,109.722 303.637,109.435 304.039,109.218 304.422,109.058 304.791,108.946 305.149,108.876 305.501,108.843 305.852,108.845 306.205,108.882 306.564,108.957 306.934,109.074 307.319,109.24 307.723,109.464 308.151,109.761 308.605,110.149 309.087,110.653 309.595,111.303 310.123,112.138 310.653,113.199 311.156,114.52 311.586,116.115 311.89,117.952 312.019,119.944 311.949,121.959 311.693,123.854 311.294,125.526 310.808,126.93 310.282,128.065 309.751,128.963 309.236,129.665 308.746,130.209 308.283,130.628 307.848,130.95 307.438,131.194 307.047,131.376 306.673,131.507 306.311,131.594 305.957,131.642 305.606,131.655 305.255,131.632 304.898,131.573" fill="none" stroke="blue" stroke-width="0.01mm" />
<polyline points="299.722,148.903 299.132,148.918 298.543,148.874 297.962,148.771 297.393,148.611 296.844,148.396 296.319,148.127 295.823,147.806 295.361,147.438 294.939,147.026 294.56,146.574 294.227,146.086 293.945,145.568 293.715,145.024 293.542,144.46 293.425,143.881 293.366,143.294 293.366,142.704 293.425,142.117 293.542,141.538 293.715,140.974 293.945,140.43 294.227,139.912 294.56,139.424 294.939,138.972 295.361,138.56 295.823,138.192 296.319,137.871 296.844,137.602 297.393,137.386 297.962,137.227 298.543,137.124 299.132,137.08 299.722,137.095 300.307,137.168 300.883,137.299 301.442,137.487 301.98,137.73 302.492,138.025 302.971,138.37 303.413,138.76 303.815,139.193 304.171,139.664 304.479,140.167 304.735,140.699 304.937,141.254 305.083,141.826 305.171,142.409 305.2,142.999 305.171,143.588 305.083,144.172 304.937,144.744 304.735,145.299 304.479,145.831 304.171,146.334 303.815,146.805 303.413,147.237 302.971,147.628 302.492,147.973 301.98,148.268 301.442,148.51 300.883,148.698 300.307,148.83 299.722,148.903" fill="none" stroke="blue" stroke-width="0.01mm" />
<polyline points="327.896,178.441 327.759,180.987 327.336,183.756 326.644,186.47 325.69,189.104 324.484,191.632 323.036,194.03 321.361,196.275 319.475,198.345 317.395,200.222 315.142,201.886 312.737,203.322 310.204,204.516 307.565,205.457 304.848,206.135 302.077,206.545 299.279,206.682 296.482,206.545 293.711,206.135 290.993,205.457 288.355,204.516 285.821,203.322 283.416,201.886 281.163,200.222 279.083,198.345 277.197,196.275 275.522,194.03 274.074,191.632 272.868,189.104 271.914,186.47 271.223,183.756 270.799,180.987 270.662,178.441 327.896,178.441" fill="none" stroke="blue" stroke-width="0.01mm" />
<polyline points="179.827,106.361 185.674,106.648 191.466,107.508 197.145,108.932 202.657,110.906 207.948,113.411 212.969,116.423 217.67,119.914 222.005,123.848 225.934,128.189 229.418,132.895 232.423,137.92 234.921,143.215 236.888,148.729 238.304,154.41 239.156,160.203 239.435,166.051 239.14,171.898 238.272,177.689 236.841,183.366 234.859,188.875 232.346,194.163 229.327,199.18 225.83,203.876 221.963,208.125 221.963,211.721 137.69,211.721 137.69,208.125 133.823,203.876 130.326,199.18 127.307,194.163 124.794,188.875 122.813,183.366 121.381,177.689 120.513,171.898 120.218,166.051 120.497,160.203 121.349,154.41 122.765,148.729 124.732,143.215 127.23,137.92 130.235,132.895 133.719,128.189 137.648,123.848 141.983,119.914 146.684,116.423 151.705,113.411 156.996,110.906 162.508,108.932 168.187,107.508 173.979,106.648 179.827,106.361" fill="none" stroke="blue" stroke-width="0.01mm" />
<polyline points="184.681,131.573 184.316,131.474 183.937,131.33 183.542,131.131 183.124,130.867 182.682,130.519 182.212,130.067 181.714,129.482 181.192,128.729 180.661,127.767 180.142,126.557 179.675,125.076 179.267,123.119 178.856,123.123 178.631,124.326 178.218,125.852 177.728,127.14 177.199,128.196 176.663,129.044 176.138,129.716 175.632,130.244 175.149,130.656 174.691,130.974 174.253,131.217 173.833,131.397 173.428,131.526 173.033,131.608 172.644,131.649 172.258,131.652 171.87,131.615 171.476,131.537 171.072,131.414 170.654,131.24 170.218,131.005 169.762,130.696 169.282,130.296 168.779,129.782 168.255,129.128 167.72,128.302 167.189,127.271 166.693,126.01 166.269,124.513 165.966,122.806 165.826,120.962 165.869,119.087 166.091,117.297 166.456,115.682 166.92,114.295 167.437,113.145 167.972,112.214 168.504,111.472 169.019,110.888 169.511,110.431 169.979,110.076 170.426,109.804 170.852,109.599 171.263,109.45 171.662,109.349 172.053,109.291 172.44,109.273 172.827,109.293 173.218,109.353 173.617,109.457 174.029,109.608 174.456,109.817 174.904,110.093 175.373,110.453 175.867,110.916 176.383,111.509 176.915,112.259 177.45,113.201 177.965,114.364 178.425,115.765 178.83,117.602 179.238,117.595 179.553,115.915 179.995,114.351 180.503,113.062 181.034,112.029 181.56,111.218 182.066,110.586 182.544,110.098 182.995,109.722 183.42,109.435 183.821,109.218 184.204,109.058 184.573,108.946 184.931,108.876 185.284,108.843 185.634,108.845 185.987,108.882 186.346,108.957 186.716,109.074 187.101,109.24 187.506,109.464 187.933,109.761 188.387,110.149 188.869,110.653 189.377,111.303 189.905,112.138 190.435,113.199 190.938,114.52 191.368,116.115 191.673,117.952 191.802,119.944 191.731,121.959 191.475,123.854 191.076,125.526 190.59,126.93 190.064,128.065 189.534,128.963 189.018,129.665 188.528,130.209 188.066,130.628 187.631,130.95 187.22,131.194 186.83,131.376 186.455,131.507 186.093,131.594 185.739,131.642 185.388,131.655 185.037,131.632 184.681,131.573" fill="none" stroke="blue" stroke-width="0.01mm" />
<polyline points="179.504,148.903 178.914,148.918 178.325,148.874 177.744,148.771 177.176,148.611 176.626,148.396 176.101,148.127 175.605,147.806 175.144,147.438 174.721,147.026 174.342,146.574 174.009,146.086 173.727,145.568 173.498,145.024 173.324,144.46 173.207,143.881 173.148,143.294 173.148,142.704 173.207,142.117 173.324,141.538 173.498,140.974 173.727,140.43 174.009,139.912 174.342,139.424 174.721,138.972 175.144,138.56 175.605,138.192 176.101,137.871 176.626,137.602 177.176,137.386 177.744,137.227 178.325,137.124 178.914,137.08 179.504,137.095 180.09,137.168 180.665,137.299 181.225,137.487 181.763,137.73 182.274,138.025 182.753,138.37 183.196,138.76 183.597,139.193 183.953,139.664 184.261,140.167 184.517,140.699 184.719,141.254 184.865,141.826 184.953,142.409 184.982,142.999 184.953,143.588 184.865,144.172 184.719,144.744 184.517,145.299 184.261,145.831 183.953,146.334 183.597,146.805 183.196,147.237 182.753,147.628 182.274,147.973 181.763,148.268 181.225,148.51 180.665,148.698 180.09,148.83 179.504,148.903" fill="none" stroke="blue" stroke-width="0.01mm" />
<polyline points="207.678,178.441 207.541,180.987 207.118,183.756 206.426,186.47 205.473,189.104 204.266,191.632 202.819,194.03 201.144,196.275 199.257,198.345 197.178,200.222 194.924,201.886 192.52,203.322 189.986,204.516 187.348,205.457 184.63,206.135 181.859,206.545 179.061,206.682 176.264,206.545 173.493,206.135 170.775,205.457 168.137,204.516 165.603,203.322 163.198,201.886 160.945,200.222 158.866,198.345 156.979,196.275 155.304,194.03 153.857,191.632 152.65,189.104 151.697,186.47 151.005,183.756 150.582,180.987 150.445,178.441 207.678,178.441" fill="none" stroke="blue" stroke-width="0.01mm" />
<polyline points="59.609,106.361 65.457,106.648 71.248,107.508 76.927,108.932 82.439,110.906 87.731,113.411 92.751,116.423 97.452,119.914 101.788,123.848 105.716,128.189 109.2,132.895 112.206,137.92 114.704,143.215 116.67,148.729 118.086,154.41 118.938,160.203 119.218,166.051 118.922,171.898 118.054,177.689 116.623,183.366 114.641,188.875 112.129,194.163 109.109,199.18 105.613,203.876 101.745,208.125 101.745,211.721 17.472,211.721 17.472,208.125 13.605,203.876 10.108,199.18 7.089,194.163 4.577,188.875 2.595,183.366 1.163,177.689 0.296,171.898 0,166.051 0.28,160.203 1.131,154.41 2.547,148.729 4.514,143.215 7.012,137.92 10.018,132.895 13.501,128.189 17.43,123.848 21.766,119.914 26.466,116.423 31.487,113.411 36.779,110.906 42.291,108.932 47.97,107.508 53.761,106.648 59.609,106.361" fill="none" stroke="blue" stroke-width="0.01mm" />
<polyline points="64.463,131.573 64.098,131.474 63.72,131.33 63.324,131.131 62.907,130.867 62.464,130.519 61.994,130.067 61.496,129.482 60.975,128.729 60.443,127.767 59.924,126.557 59.457,125.076 59.049,123.119 58.639,123.123 58.413,124.326 58,125.852 57.51,127.14 56.982,128.196 56.446,129.044 55.92,129.716 55.414,130.244 54.932,130.656 54.473,130.974 54.035,131.217 53.616,131.397 53.21,131.526 52.815,131.608 52.426,131.649 52.04,131.652 51.652,131.615 51.258,131.537 50.854,131.414 50.436,131.24 50.001,131.005 49.544,130.696 49.065,130.296 48.561,129.782 48.038,129.128 47.502,128.302 46.972,127.271 46.475,126.01 46.052,124.513 45.749,122.806 45.608,120.962 45.652,119.087 45.873,117.297 46.239,115.682 46.702,114.295 47.219,113.145 47.754,112.214 48.286,111.472 48.801,110.888 49.293,110.431 49.762,110.076 50.208,109.804 50.635,109.599 51.045,109.45 51.444,109.349 51.835,109.291 52.222,109.273 52.609,109.293 53,109.353 53.399,109.457 53.811,109.608 54.238,109.817 54.686,110.093 55.156,110.453 55.649,110.916 56.165,111.509 56.697,112.259 57.233,113.201 57.748,114.364 58.207,115.765 58.612,117.602 59.021,117.595 59.335,115.915 59.777,114.351 60.285,113.062 60.816,112.029 61.342,111.218 61.848,110.586 62.327,110.098 62.777,109.722 63.202,109.435 63.604,109.218 63.987,109.058 64.355,108.946 64.714,108.876 65.066,108.843 65.416,108.845 65.769,108.882 66.129,108.957 66.499,109.074 66.884,109.24 67.288,109.464 67.715,109.761 68.169,110.149 68.651,110.653 69.16,111.303 69.687,112.138 70.218,113.199 70.72,114.52 71.151,116.115 71.455,117.952 71.584,119.944 71.514,121.959 71.257,123.854 70.859,125.526 70.372,126.93 69.847,128.065 69.316,128.963 68.801,129.665 68.31,130.209 67.848,130.628 67.413,130.95 67.002,131.194 66.612,131.376 66.238,131.507 65.876,131.594 65.521,131.642 65.171,131.655 64.819,131.632 64.463,131.573" fill="none" stroke="blue" stroke-width="0.01mm" />
<polyline points="59.286,148.903 58.696,148.918 58.108,148.874 57.526,148.771 56.958,148.611 56.409,148.396 55.883,148.127 55.388,147.806 54.926,147.438 54.504,147.026 54.124,146.574 53.792,146.086 53.509,145.568 53.28,145.024 53.106,144.46 52.989,143.881 52.93,143.294 52.93,142.704 52.989,142.117 53.106,141.538 53.28,140.974 53.509,140.43 53.792,139.912 54.124,139.424 54.504,138.972 54.926,138.56 55.388,138.192 55.883,137.871 56.409,137.602 56.958,137.386 57.526,137.227 58.108,137.124 58.696,137.08 59.286,137.095 59.872,137.168 60.447,137.299 61.007,137.487 61.545,137.73 62.056,138.025 62.535,138.37 62.978,138.76 63.379,139.193 63.736,139.664 64.044,140.167 64.3,140.699 64.502,141.254 64.647,141.826 64.735,142.409 64.765,142.999 64.735,143.588 64.647,144.172 64.502,144.744 64.3,145.299 64.044,145.831 63.736,146.334 63.379,146.805 62.978,147.237 62.535,147.628 62.056,147.973 61.545,148.268 61.007,148.51 60.447,148.698 59.872,148.83 59.286,148.903" fill="none" stroke="blue" stroke-width="0.01mm" />
<polyline points="87.461,178.441 87.324,180.987 86.9,183.756 86.209,186.47 85.255,189.104 84.049,191.632 82.601,194.03 80.926,196.275 79.04,198.345 76.96,200.222 74.707,201.886 72.302,203.322 69.768,204.516 67.13,205.457 64.412,206.135 61.641,206.545 58.844,206.682 56.046,206.545 53.275,206.135 50.558,205.457 47.919,204.516 45.386,203.322 42.981,201.886 40.728,200.222 38.648,198.345 36.762,196.275 35.087,194.03 33.639,191.632 32.432,189.104 31.479,186.47 30.787,183.756 30.364,180.987 30.227,178.441 87.461,178.441" fill="none" stroke="blue" stroke-width="0.01mm" />
</svg>